<mxfile host="app.diagrams.net" modified="2023-08-31T13:33:06.008Z" agent="Mozilla/5.0 (Windows NT 10.0; Win64; x64) AppleWebKit/537.36 (KHTML, like Gecko) Chrome/116.0.0.0 Safari/537.36 Edg/116.0.1938.62" etag="mrsuI6ovRi2KYyj1IQ3x" version="21.7.1" type="github">
  <diagram id="C5RBs43oDa-KdzZeNtuy" name="Page-1">
    <mxGraphModel dx="652" dy="1180" grid="1" gridSize="10" guides="1" tooltips="1" connect="1" arrows="1" fold="1" page="1" pageScale="1" pageWidth="1169" pageHeight="827" background="#000000" math="0" shadow="0">
      <root>
        <mxCell id="WIyWlLk6GJQsqaUBKTNV-0" />
        <mxCell id="WIyWlLk6GJQsqaUBKTNV-1" parent="WIyWlLk6GJQsqaUBKTNV-0" />
        <mxCell id="swS7AuEwxA6HcnicoBHR-45" value="" style="rounded=0;whiteSpace=wrap;html=1;strokeColor=#FFFFFF;fillColor=#000000;" parent="WIyWlLk6GJQsqaUBKTNV-1" vertex="1">
          <mxGeometry x="1240" y="-10" width="970" height="820" as="geometry" />
        </mxCell>
        <mxCell id="swS7AuEwxA6HcnicoBHR-0" value="Start" style="strokeWidth=2;html=1;shape=mxgraph.flowchart.terminator;fillColor=#000000;fontColor=#FFFFFF;strokeColor=#FFFFFF;" parent="WIyWlLk6GJQsqaUBKTNV-1" vertex="1">
          <mxGeometry x="122" y="56" width="70" height="40" as="geometry" />
        </mxCell>
        <mxCell id="swS7AuEwxA6HcnicoBHR-1" value="Input:&lt;br&gt;Nilai Mahasiswa" style="shape=parallelogram;html=1;strokeWidth=2;perimeter=parallelogramPerimeter;whiteSpace=wrap;rounded=1;arcSize=12;size=0.23;fillColor=#000000;strokeColor=#FFFFFF;fontColor=#FFFFFF;" parent="WIyWlLk6GJQsqaUBKTNV-1" vertex="1">
          <mxGeometry x="242" y="56" width="180" height="40" as="geometry" />
        </mxCell>
        <mxCell id="swS7AuEwxA6HcnicoBHR-4" value="" style="edgeStyle=orthogonalEdgeStyle;rounded=0;orthogonalLoop=1;jettySize=auto;html=1;fontSize=12;fillColor=#000000;strokeColor=#FFFFFF;fontColor=#FFFFFF;strokeWidth=2;" parent="WIyWlLk6GJQsqaUBKTNV-1" source="swS7AuEwxA6HcnicoBHR-0" target="swS7AuEwxA6HcnicoBHR-1" edge="1">
          <mxGeometry relative="1" as="geometry" />
        </mxCell>
        <mxCell id="swS7AuEwxA6HcnicoBHR-2" value="Nilai &amp;gt;=0&lt;br&gt;&amp;amp;&lt;br&gt;Nilai &amp;lt;= 100" style="strokeWidth=2;html=1;shape=mxgraph.flowchart.decision;whiteSpace=wrap;fillColor=#000000;strokeColor=#FFFFFF;fontColor=#FFFFFF;" parent="WIyWlLk6GJQsqaUBKTNV-1" vertex="1">
          <mxGeometry x="462" y="11" width="130" height="130" as="geometry" />
        </mxCell>
        <mxCell id="swS7AuEwxA6HcnicoBHR-3" value="" style="edgeStyle=orthogonalEdgeStyle;rounded=0;orthogonalLoop=1;jettySize=auto;html=1;fontSize=12;fillColor=#000000;strokeColor=#FFFFFF;fontColor=#FFFFFF;strokeWidth=2;" parent="WIyWlLk6GJQsqaUBKTNV-1" source="swS7AuEwxA6HcnicoBHR-1" target="swS7AuEwxA6HcnicoBHR-2" edge="1">
          <mxGeometry relative="1" as="geometry" />
        </mxCell>
        <mxCell id="swS7AuEwxA6HcnicoBHR-5" value="Nilai &amp;gt;= 90" style="strokeWidth=2;html=1;shape=mxgraph.flowchart.decision;whiteSpace=wrap;fillColor=#000000;strokeColor=#FFFFFF;fontColor=#FFFFFF;" parent="WIyWlLk6GJQsqaUBKTNV-1" vertex="1">
          <mxGeometry x="632" y="11" width="130" height="130" as="geometry" />
        </mxCell>
        <mxCell id="swS7AuEwxA6HcnicoBHR-7" value="" style="edgeStyle=orthogonalEdgeStyle;rounded=0;orthogonalLoop=1;jettySize=auto;html=1;fontSize=12;fillColor=#000000;strokeColor=#FFFFFF;fontColor=#FFFFFF;strokeWidth=2;" parent="WIyWlLk6GJQsqaUBKTNV-1" source="swS7AuEwxA6HcnicoBHR-2" target="swS7AuEwxA6HcnicoBHR-5" edge="1">
          <mxGeometry relative="1" as="geometry" />
        </mxCell>
        <mxCell id="swS7AuEwxA6HcnicoBHR-16" value="Yes" style="edgeLabel;html=1;align=center;verticalAlign=middle;resizable=0;points=[];fontSize=12;fillColor=#000000;strokeColor=#FFFFFF;fontColor=#FFFFFF;strokeWidth=2;labelBackgroundColor=none;" parent="swS7AuEwxA6HcnicoBHR-7" vertex="1" connectable="0">
          <mxGeometry x="0.1" y="1" relative="1" as="geometry">
            <mxPoint x="-12" y="-9" as="offset" />
          </mxGeometry>
        </mxCell>
        <mxCell id="swS7AuEwxA6HcnicoBHR-6" value="Output:&lt;br&gt;Grade = A" style="shape=parallelogram;html=1;strokeWidth=2;perimeter=parallelogramPerimeter;whiteSpace=wrap;rounded=1;arcSize=12;size=0.23;fillColor=#000000;strokeColor=#FFFFFF;fontColor=#FFFFFF;" parent="WIyWlLk6GJQsqaUBKTNV-1" vertex="1">
          <mxGeometry x="799" y="46" width="100" height="60" as="geometry" />
        </mxCell>
        <mxCell id="swS7AuEwxA6HcnicoBHR-8" value="" style="edgeStyle=orthogonalEdgeStyle;rounded=0;orthogonalLoop=1;jettySize=auto;html=1;fontSize=12;fillColor=#000000;strokeColor=#FFFFFF;fontColor=#FFFFFF;strokeWidth=2;" parent="WIyWlLk6GJQsqaUBKTNV-1" source="swS7AuEwxA6HcnicoBHR-5" target="swS7AuEwxA6HcnicoBHR-6" edge="1">
          <mxGeometry relative="1" as="geometry" />
        </mxCell>
        <mxCell id="swS7AuEwxA6HcnicoBHR-15" value="Yes" style="edgeLabel;html=1;align=center;verticalAlign=middle;resizable=0;points=[];fontSize=12;fillColor=#000000;strokeColor=#FFFFFF;fontColor=#FFFFFF;strokeWidth=2;labelBackgroundColor=none;" parent="swS7AuEwxA6HcnicoBHR-8" vertex="1" connectable="0">
          <mxGeometry x="-0.0826" y="9" relative="1" as="geometry">
            <mxPoint x="1" y="-1" as="offset" />
          </mxGeometry>
        </mxCell>
        <mxCell id="swS7AuEwxA6HcnicoBHR-9" value="Nilai &amp;lt; 90&lt;br&gt;&amp;amp;&lt;br&gt;Nilai &amp;gt;= 80" style="strokeWidth=2;html=1;shape=mxgraph.flowchart.decision;whiteSpace=wrap;fillColor=#000000;strokeColor=#FFFFFF;fontColor=#FFFFFF;" parent="WIyWlLk6GJQsqaUBKTNV-1" vertex="1">
          <mxGeometry x="632" y="179.57" width="130" height="130" as="geometry" />
        </mxCell>
        <mxCell id="swS7AuEwxA6HcnicoBHR-12" value="" style="edgeStyle=orthogonalEdgeStyle;rounded=0;orthogonalLoop=1;jettySize=auto;html=1;fontSize=12;fillColor=#000000;strokeColor=#FFFFFF;fontColor=#FFFFFF;strokeWidth=2;" parent="WIyWlLk6GJQsqaUBKTNV-1" source="swS7AuEwxA6HcnicoBHR-5" target="swS7AuEwxA6HcnicoBHR-9" edge="1">
          <mxGeometry relative="1" as="geometry" />
        </mxCell>
        <mxCell id="swS7AuEwxA6HcnicoBHR-13" value="No" style="edgeLabel;html=1;align=center;verticalAlign=middle;resizable=0;points=[];fontSize=12;fillColor=#000000;strokeColor=#FFFFFF;fontColor=#FFFFFF;strokeWidth=2;labelBackgroundColor=none;" parent="swS7AuEwxA6HcnicoBHR-12" vertex="1" connectable="0">
          <mxGeometry x="0.5273" relative="1" as="geometry">
            <mxPoint x="15" y="-14" as="offset" />
          </mxGeometry>
        </mxCell>
        <mxCell id="swS7AuEwxA6HcnicoBHR-10" value="Output:&lt;br&gt;Grade = B" style="shape=parallelogram;html=1;strokeWidth=2;perimeter=parallelogramPerimeter;whiteSpace=wrap;rounded=1;arcSize=12;size=0.23;fillColor=#000000;strokeColor=#FFFFFF;fontColor=#FFFFFF;" parent="WIyWlLk6GJQsqaUBKTNV-1" vertex="1">
          <mxGeometry x="799" y="214.57" width="100" height="60" as="geometry" />
        </mxCell>
        <mxCell id="swS7AuEwxA6HcnicoBHR-11" value="" style="edgeStyle=orthogonalEdgeStyle;rounded=0;orthogonalLoop=1;jettySize=auto;html=1;fontSize=12;fillColor=#000000;strokeColor=#FFFFFF;fontColor=#FFFFFF;strokeWidth=2;" parent="WIyWlLk6GJQsqaUBKTNV-1" source="swS7AuEwxA6HcnicoBHR-9" target="swS7AuEwxA6HcnicoBHR-10" edge="1">
          <mxGeometry relative="1" as="geometry" />
        </mxCell>
        <mxCell id="swS7AuEwxA6HcnicoBHR-37" value="Yes" style="edgeLabel;html=1;align=center;verticalAlign=middle;resizable=0;points=[];fontSize=12;fillColor=#000000;strokeColor=#FFFFFF;fontColor=#FFFFFF;strokeWidth=2;labelBackgroundColor=none;" parent="swS7AuEwxA6HcnicoBHR-11" vertex="1" connectable="0">
          <mxGeometry x="-0.0406" y="3" relative="1" as="geometry">
            <mxPoint y="-6" as="offset" />
          </mxGeometry>
        </mxCell>
        <mxCell id="swS7AuEwxA6HcnicoBHR-18" value="Nilai &amp;lt; 80&lt;br&gt;&amp;amp;&lt;br&gt;Nilai &amp;gt;= 70" style="strokeWidth=2;html=1;shape=mxgraph.flowchart.decision;whiteSpace=wrap;fillColor=#000000;strokeColor=#FFFFFF;fontColor=#FFFFFF;" parent="WIyWlLk6GJQsqaUBKTNV-1" vertex="1">
          <mxGeometry x="632" y="346" width="130" height="130" as="geometry" />
        </mxCell>
        <mxCell id="swS7AuEwxA6HcnicoBHR-20" value="" style="edgeStyle=orthogonalEdgeStyle;rounded=0;orthogonalLoop=1;jettySize=auto;html=1;fontSize=12;fillColor=#000000;strokeColor=#FFFFFF;fontColor=#FFFFFF;strokeWidth=2;" parent="WIyWlLk6GJQsqaUBKTNV-1" source="swS7AuEwxA6HcnicoBHR-9" target="swS7AuEwxA6HcnicoBHR-18" edge="1">
          <mxGeometry relative="1" as="geometry" />
        </mxCell>
        <mxCell id="swS7AuEwxA6HcnicoBHR-42" value="No" style="edgeLabel;html=1;align=center;verticalAlign=middle;resizable=0;points=[];fontSize=12;fillColor=#000000;strokeColor=#FFFFFF;fontColor=#FFFFFF;strokeWidth=2;labelBackgroundColor=none;" parent="swS7AuEwxA6HcnicoBHR-20" vertex="1" connectable="0">
          <mxGeometry x="-0.659" y="-5" relative="1" as="geometry">
            <mxPoint x="20" y="9" as="offset" />
          </mxGeometry>
        </mxCell>
        <mxCell id="gYKxSyvh7425BpXwHA8T-3" value="" style="edgeStyle=orthogonalEdgeStyle;rounded=0;orthogonalLoop=1;jettySize=auto;html=1;" edge="1" parent="WIyWlLk6GJQsqaUBKTNV-1" source="swS7AuEwxA6HcnicoBHR-19" target="gYKxSyvh7425BpXwHA8T-2">
          <mxGeometry relative="1" as="geometry" />
        </mxCell>
        <mxCell id="gYKxSyvh7425BpXwHA8T-5" style="edgeStyle=orthogonalEdgeStyle;rounded=0;orthogonalLoop=1;jettySize=auto;html=1;exitX=1;exitY=0.5;exitDx=0;exitDy=0;" edge="1" parent="WIyWlLk6GJQsqaUBKTNV-1" source="swS7AuEwxA6HcnicoBHR-19" target="gYKxSyvh7425BpXwHA8T-2">
          <mxGeometry relative="1" as="geometry" />
        </mxCell>
        <mxCell id="gYKxSyvh7425BpXwHA8T-6" style="edgeStyle=orthogonalEdgeStyle;rounded=0;orthogonalLoop=1;jettySize=auto;html=1;exitX=1;exitY=0.5;exitDx=0;exitDy=0;" edge="1" parent="WIyWlLk6GJQsqaUBKTNV-1" source="swS7AuEwxA6HcnicoBHR-19" target="gYKxSyvh7425BpXwHA8T-2">
          <mxGeometry relative="1" as="geometry" />
        </mxCell>
        <mxCell id="gYKxSyvh7425BpXwHA8T-8" style="edgeStyle=orthogonalEdgeStyle;rounded=0;orthogonalLoop=1;jettySize=auto;html=1;exitX=1;exitY=0.5;exitDx=0;exitDy=0;entryX=0;entryY=0.5;entryDx=0;entryDy=0;entryPerimeter=0;" edge="1" parent="WIyWlLk6GJQsqaUBKTNV-1" source="swS7AuEwxA6HcnicoBHR-19" target="gYKxSyvh7425BpXwHA8T-2">
          <mxGeometry relative="1" as="geometry" />
        </mxCell>
        <mxCell id="gYKxSyvh7425BpXwHA8T-9" style="edgeStyle=orthogonalEdgeStyle;rounded=0;orthogonalLoop=1;jettySize=auto;html=1;exitX=1;exitY=0.5;exitDx=0;exitDy=0;" edge="1" parent="WIyWlLk6GJQsqaUBKTNV-1" source="swS7AuEwxA6HcnicoBHR-19">
          <mxGeometry relative="1" as="geometry">
            <mxPoint x="1010" y="411.1739130434785" as="targetPoint" />
          </mxGeometry>
        </mxCell>
        <mxCell id="swS7AuEwxA6HcnicoBHR-19" value="Output:&lt;br&gt;Grade = C" style="shape=parallelogram;html=1;strokeWidth=2;perimeter=parallelogramPerimeter;whiteSpace=wrap;rounded=1;arcSize=12;size=0.23;fillColor=#000000;strokeColor=#FFFFFF;fontColor=#FFFFFF;" parent="WIyWlLk6GJQsqaUBKTNV-1" vertex="1">
          <mxGeometry x="799" y="381" width="100" height="60" as="geometry" />
        </mxCell>
        <mxCell id="swS7AuEwxA6HcnicoBHR-17" value="" style="edgeStyle=orthogonalEdgeStyle;rounded=0;orthogonalLoop=1;jettySize=auto;html=1;fontSize=12;fillColor=#000000;strokeColor=#FFFFFF;fontColor=#FFFFFF;strokeWidth=2;" parent="WIyWlLk6GJQsqaUBKTNV-1" source="swS7AuEwxA6HcnicoBHR-18" target="swS7AuEwxA6HcnicoBHR-19" edge="1">
          <mxGeometry relative="1" as="geometry" />
        </mxCell>
        <mxCell id="swS7AuEwxA6HcnicoBHR-38" value="Yes" style="edgeLabel;html=1;align=center;verticalAlign=middle;resizable=0;points=[];fontSize=12;fillColor=#000000;strokeColor=#FFFFFF;fontColor=#FFFFFF;strokeWidth=2;labelBackgroundColor=none;" parent="swS7AuEwxA6HcnicoBHR-17" vertex="1" connectable="0">
          <mxGeometry x="-0.0406" y="3" relative="1" as="geometry">
            <mxPoint y="-12" as="offset" />
          </mxGeometry>
        </mxCell>
        <mxCell id="swS7AuEwxA6HcnicoBHR-22" value="Nilai &amp;lt; 70&lt;br&gt;&amp;amp;&lt;br&gt;Nilai &amp;gt;= 60" style="strokeWidth=2;html=1;shape=mxgraph.flowchart.decision;whiteSpace=wrap;fillColor=#000000;strokeColor=#FFFFFF;fontColor=#FFFFFF;" parent="WIyWlLk6GJQsqaUBKTNV-1" vertex="1">
          <mxGeometry x="632" y="516" width="130" height="130" as="geometry" />
        </mxCell>
        <mxCell id="swS7AuEwxA6HcnicoBHR-24" value="" style="edgeStyle=orthogonalEdgeStyle;rounded=0;orthogonalLoop=1;jettySize=auto;html=1;fontSize=12;fillColor=#000000;strokeColor=#FFFFFF;fontColor=#FFFFFF;strokeWidth=2;" parent="WIyWlLk6GJQsqaUBKTNV-1" source="swS7AuEwxA6HcnicoBHR-18" target="swS7AuEwxA6HcnicoBHR-22" edge="1">
          <mxGeometry relative="1" as="geometry" />
        </mxCell>
        <mxCell id="swS7AuEwxA6HcnicoBHR-41" value="No" style="edgeLabel;html=1;align=center;verticalAlign=middle;resizable=0;points=[];fontSize=12;fillColor=#000000;strokeColor=#FFFFFF;fontColor=#FFFFFF;strokeWidth=2;labelBackgroundColor=none;" parent="swS7AuEwxA6HcnicoBHR-24" vertex="1" connectable="0">
          <mxGeometry x="-0.5214" y="1" relative="1" as="geometry">
            <mxPoint x="14" as="offset" />
          </mxGeometry>
        </mxCell>
        <mxCell id="swS7AuEwxA6HcnicoBHR-23" value="Output:&lt;br&gt;Grade = D" style="shape=parallelogram;html=1;strokeWidth=2;perimeter=parallelogramPerimeter;whiteSpace=wrap;rounded=1;arcSize=12;size=0.23;fillColor=#000000;strokeColor=#FFFFFF;fontColor=#FFFFFF;" parent="WIyWlLk6GJQsqaUBKTNV-1" vertex="1">
          <mxGeometry x="799" y="551" width="100" height="60" as="geometry" />
        </mxCell>
        <mxCell id="swS7AuEwxA6HcnicoBHR-21" value="" style="edgeStyle=orthogonalEdgeStyle;rounded=0;orthogonalLoop=1;jettySize=auto;html=1;fontSize=12;fillColor=#000000;strokeColor=#FFFFFF;fontColor=#FFFFFF;strokeWidth=2;" parent="WIyWlLk6GJQsqaUBKTNV-1" source="swS7AuEwxA6HcnicoBHR-22" target="swS7AuEwxA6HcnicoBHR-23" edge="1">
          <mxGeometry relative="1" as="geometry" />
        </mxCell>
        <mxCell id="swS7AuEwxA6HcnicoBHR-39" value="Yes" style="edgeLabel;html=1;align=center;verticalAlign=middle;resizable=0;points=[];fontSize=12;fillColor=#000000;strokeColor=#FFFFFF;fontColor=#FFFFFF;strokeWidth=2;labelBackgroundColor=none;" parent="swS7AuEwxA6HcnicoBHR-21" vertex="1" connectable="0">
          <mxGeometry x="-0.2189" y="-4" relative="1" as="geometry">
            <mxPoint x="1" y="-11" as="offset" />
          </mxGeometry>
        </mxCell>
        <mxCell id="swS7AuEwxA6HcnicoBHR-25" value="Output:&lt;br&gt;Grade = F" style="shape=parallelogram;html=1;strokeWidth=2;perimeter=parallelogramPerimeter;whiteSpace=wrap;rounded=1;arcSize=12;size=0.23;fillColor=#000000;strokeColor=#FFFFFF;fontColor=#FFFFFF;" parent="WIyWlLk6GJQsqaUBKTNV-1" vertex="1">
          <mxGeometry x="799" y="696" width="100" height="60" as="geometry" />
        </mxCell>
        <mxCell id="swS7AuEwxA6HcnicoBHR-26" style="edgeStyle=orthogonalEdgeStyle;rounded=0;orthogonalLoop=1;jettySize=auto;html=1;exitX=0.5;exitY=1;exitDx=0;exitDy=0;exitPerimeter=0;entryX=0;entryY=0.5;entryDx=0;entryDy=0;fontSize=12;fillColor=#000000;strokeColor=#FFFFFF;fontColor=#FFFFFF;strokeWidth=2;" parent="WIyWlLk6GJQsqaUBKTNV-1" source="swS7AuEwxA6HcnicoBHR-22" target="swS7AuEwxA6HcnicoBHR-25" edge="1">
          <mxGeometry relative="1" as="geometry">
            <Array as="points">
              <mxPoint x="697" y="726" />
            </Array>
          </mxGeometry>
        </mxCell>
        <mxCell id="swS7AuEwxA6HcnicoBHR-40" value="No" style="edgeLabel;html=1;align=center;verticalAlign=middle;resizable=0;points=[];fontSize=12;fillColor=#000000;strokeColor=#FFFFFF;fontColor=#FFFFFF;strokeWidth=2;labelBackgroundColor=none;" parent="swS7AuEwxA6HcnicoBHR-26" vertex="1" connectable="0">
          <mxGeometry x="-0.8272" y="-2" relative="1" as="geometry">
            <mxPoint x="17" as="offset" />
          </mxGeometry>
        </mxCell>
        <mxCell id="gYKxSyvh7425BpXwHA8T-2" value="Grade semua mahasiswa sudah terhitung" style="strokeWidth=2;html=1;shape=mxgraph.flowchart.decision;whiteSpace=wrap;fillColor=#000000;strokeColor=#FFFFFF;fontColor=#FFFFFF;" vertex="1" parent="WIyWlLk6GJQsqaUBKTNV-1">
          <mxGeometry x="1010" y="346" width="130" height="130" as="geometry" />
        </mxCell>
      </root>
    </mxGraphModel>
  </diagram>
</mxfile>
